<svg xmlns="http://www.w3.org/2000/svg" width="19.978" height="19.999" viewBox="0 0 19.978 19.999">
  <g id="arcicon" transform="translate(1663.62 -1383)">
    <path id="Path_122" data-name="Path 122" d="M66.54,39.913,56.407,50.046a1.389,1.389,0,0,0,0,1.965l.56.56a1.389,1.389,0,0,0,1.964,0L69.065,42.438Z" transform="translate(-1719.62 1350.022)" fill="#52595d"/>
    <path id="Path_123" data-name="Path 123" d="M73.794,39.57a.868.868,0,0,0-.038-1.187l-3.048-3.047a.87.87,0,0,0-1.156-.065A13,13,0,0,0,60.4,33.12c-.235.038-.235.368,0,.472a28.877,28.877,0,0,1,6.649,4.178l-.068.068a.869.869,0,0,0-.251.692l3.835,3.835a.87.87,0,0,0,.692-.251l.06-.061a28.871,28.871,0,0,1,4.057,6.464c.1.234.434.233.471,0a12.977,12.977,0,0,0-2.048-8.945" transform="translate(-1719.62 1350.022)" fill="#52595d"/>
  </g>
</svg>
