<svg xmlns="http://www.w3.org/2000/svg" width="20" height="20" viewBox="0 0 20 20">
  <g id="checkcircle" transform="translate(1719.62 -1383)">
    <path id="Path_119" data-name="Path 119" d="M20,42.978a10,10,0,1,1-10-10,10,10,0,0,1,10,10M8.843,48.272l7.419-7.419a.645.645,0,0,0,0-.912l-.912-.912a.645.645,0,0,0-.912,0l-6.051,6.05L5.562,42.254a.645.645,0,0,0-.912,0l-.912.912a.645.645,0,0,0,0,.912l4.194,4.194a.645.645,0,0,0,.912,0Z" transform="translate(-1719.62 1350.022)" fill="#21409a"/>
  </g>
</svg>
