<svg xmlns="http://www.w3.org/2000/svg" width="26.25" height="30" viewBox="0 0 26.25 30">
  <path id="Icon_awesome-unlock-alt" data-name="Icon awesome-unlock-alt" d="M23.437,15H8.906V8.959a4.219,4.219,0,1,1,8.437-.053v.937A1.4,1.4,0,0,0,18.75,11.25h1.875a1.4,1.4,0,0,0,1.406-1.406V8.906a8.906,8.906,0,1,0-17.812.088V15H2.812A2.813,2.813,0,0,0,0,17.812v9.375A2.813,2.813,0,0,0,2.812,30H23.437a2.813,2.813,0,0,0,2.812-2.812V17.812A2.813,2.813,0,0,0,23.437,15Zm-7.969,8.906a2.344,2.344,0,0,1-4.687,0V21.094a2.344,2.344,0,1,1,4.687,0Z" transform="translate(0 0)" fill="#959595"/>
</svg>
