<svg xmlns="http://www.w3.org/2000/svg" width="14.923" height="20.001" viewBox="0 0 14.923 20.001">
  <g id="moneybag" transform="translate(1607.464 -1383)">
    <path id="Path_165" data-name="Path 165" d="M115.229,35.03h0" transform="translate(-1719.62 1350.022)" fill="#936145"/>
    <path id="Path_166" data-name="Path 166" d="M127.058,47.765a10.631,10.631,0,0,0-.307-1.861A13.551,13.551,0,0,0,125.8,43.3a11.608,11.608,0,0,0-2.539-3.534h-6.773l-.67.019a13.073,13.073,0,0,0-2.733,4.317,12.469,12.469,0,0,0-.8,2.768,8.144,8.144,0,0,0-.088,2.19,4.249,4.249,0,0,0,.474,1.6,3.371,3.371,0,0,0,.992,1.127,4.632,4.632,0,0,0,1.2.62,7.8,7.8,0,0,0,1.712.4q.765.093,1.532.138c.5.028,1.008.028,1.512.042.781-.009,1.56-.03,2.339-.1a11.886,11.886,0,0,0,1.583-.238,6.454,6.454,0,0,0,1.31-.435,3.855,3.855,0,0,0,1.217-.86,3.542,3.542,0,0,0,.849-1.593,6.237,6.237,0,0,0,.143-1.989m-5.868,1.226a2.21,2.21,0,0,1-1.048.534v.6a.3.3,0,0,1-.3.289h-.608a.3.3,0,0,1-.305-.289v-.543a3.359,3.359,0,0,1-1.335-.382.284.284,0,0,1-.12-.354l.232-.541a.3.3,0,0,1,.184-.165.317.317,0,0,1,.252.025,2.658,2.658,0,0,0,1.236.307c.5,0,.845-.207.845-.5,0-.2-.107-.424-.888-.688a3.969,3.969,0,0,1-1.261-.608,1.321,1.321,0,0,1-.535-1.062,1.4,1.4,0,0,1,.491-1.066,2.189,2.189,0,0,1,.967-.472V43.5a.3.3,0,0,1,.3-.289h.6a.3.3,0,0,1,.3.289v.513a3.126,3.126,0,0,1,1.091.3.281.281,0,0,1,.14.369l-.242.533a.3.3,0,0,1-.175.159.324.324,0,0,1-.241-.014,2.348,2.348,0,0,0-1.08-.245c-.531,0-.719.219-.719.406,0,.206.149.356,1,.65a3.277,3.277,0,0,1,1.233.664,1.425,1.425,0,0,1,.464,1.085,1.49,1.49,0,0,1-.478,1.077" transform="translate(-1719.62 1350.022)" fill="#936145"/>
    <path id="Path_167" data-name="Path 167" d="M116.252,39.079h6.58c0-.031.006-.062.01-.092.186-1.421,1.956-2.789,1.824-4.12a.836.836,0,0,0-.657-.758,1.362,1.362,0,0,0-.509-.021,1.691,1.691,0,0,0-.873.324c-.307.248-.882.658-1.225.219a8.833,8.833,0,0,0-.787-1.215,1.493,1.493,0,0,0-1.037-.438,1.447,1.447,0,0,0-1.354.744,3.246,3.246,0,0,0-.228.485,1.08,1.08,0,0,1-.69.67,3.792,3.792,0,0,1-1.191.152h-.047c-.09,0-.1,0-.075,0a2.419,2.419,0,0,0-1.17.136.685.685,0,0,0-.379.629,1.1,1.1,0,0,0,.181.594q.819,1.343,1.627,2.691" transform="translate(-1719.62 1350.022)" fill="#936145"/>
  </g>
</svg>
