<svg xmlns="http://www.w3.org/2000/svg" width="16.179" height="20.001" viewBox="0 0 16.179 20.001">
  <g id="yellowbag" transform="translate(1633.642 -1383)">
    <path id="Path_130" data-name="Path 130" d="M94.081,36.742l6.17,14.135a27.272,27.272,0,0,1-12.373.02Zm0-3.446-8.105,18.5a25.738,25.738,0,0,0,8.049,1.186,28.15,28.15,0,0,0,8.13-1.186Z" transform="translate(-1719.62 1350.022)" fill="#ead900"/>
    <path id="Path_131" data-name="Path 131" d="M94.841,41.758l-.777-.048-.4-.668a.243.243,0,0,0-.226-.116.239.239,0,0,0-.2.152l-.286.723-.759.175a.239.239,0,0,0-.18.178.242.242,0,0,0,.081.241l.6.5-.069.775a.241.241,0,0,0,.369.224l.656-.418.716.305a.245.245,0,0,0,.162.01.269.269,0,0,0,.089-.049.241.241,0,0,0,.076-.242l-.194-.754.511-.586a.241.241,0,0,0-.166-.4" transform="translate(-1719.62 1350.022)" fill="#ead900"/>
    <path id="Path_132" data-name="Path 132" d="M95.4,48.513l-.748.215-.6-.494a.241.241,0,0,0-.393.178l-.026.777-.656.419a.238.238,0,0,0-.109.229.242.242,0,0,0,.157.2l.731.265.2.753a.24.24,0,0,0,.422.087l.478-.613.777.046a.235.235,0,0,0,.155-.046.223.223,0,0,0,.068-.075.24.24,0,0,0-.01-.253l-.435-.645.284-.724a.241.241,0,0,0-.29-.319" transform="translate(-1719.62 1350.022)" fill="#ead900"/>
    <path id="Path_133" data-name="Path 133" d="M96.819,44.059a.239.239,0,0,0-.141.21l-.026.778L96,45.466a.237.237,0,0,0-.109.229.24.24,0,0,0,.156.2l.732.265.2.754a.241.241,0,0,0,.422.087l.478-.614.431.026-.891-2.04-.34-.28a.24.24,0,0,0-.252-.033" transform="translate(-1719.62 1350.022)" fill="#ead900"/>
    <path id="Path_134" data-name="Path 134" d="M99.278,50.411l-.777.048a.238.238,0,0,0-.207.147.242.242,0,0,0,.041.251l.3.348q.813-.14,1.613-.328l-.517-1.185a.277.277,0,0,0-.056.052Z" transform="translate(-1719.62 1350.022)" fill="#ead900"/>
    <path id="Path_135" data-name="Path 135" d="M88.657,49.583a.24.24,0,0,0,.243-.069l.524-.575.771.106a.242.242,0,0,0,.243-.357l-.386-.676.339-.7a.24.24,0,0,0-.028-.253.237.237,0,0,0-.237-.087l-.58.12-1.037,2.364a.228.228,0,0,0,.058.079.224.224,0,0,0,.09.048" transform="translate(-1719.62 1350.022)" fill="#ead900"/>
    <path id="Path_136" data-name="Path 136" d="M94.363,33.243s-1.519-.972-3.658.806c-.961.681-1.833.717-2.04.505a2.588,2.588,0,0,0,.614,1.726c.669,0,.966-.43,1.907-1.442a2.655,2.655,0,0,1,1.781-1A6.409,6.409,0,0,0,91.3,35.9a3.546,3.546,0,0,1-1.738,1.452s.5.911,1.195,1.033c1.007-.438,1.321-1,1.766-2.21s1-2.068,1.36-2.136c-.31.811.238,2.634-.016,3.517a3.587,3.587,0,0,1-.745,1.394,2.445,2.445,0,0,0,1.144.081c.822-.53.847-1.747.629-2.92s-.332-2.24-.332-2.24a9.552,9.552,0,0,0,1.154,1.71,6.29,6.29,0,0,1,.972,2.079.98.98,0,0,0,1-.228,4.957,4.957,0,0,0-1.774-3.018c-.742-.615-.779-.817-.779-.817a3.245,3.245,0,0,0,2.287.83,12.991,12.991,0,0,1,2.628.181s.165-.24-.049-1.162a6.162,6.162,0,0,0-2.762.22c-1.213.225-1.347-1.172-2.882-.428" transform="translate(-1719.62 1350.022)" fill="#ead900"/>
  </g>
</svg>
